<svg width="64" height="64" viewBox="0 0 64 64" fill="none" xmlns="http://www.w3.org/2000/svg">
<path d="M15 9.71484C6.72725 9.71484 0 16.444 0 24.7148C0 32.2661 5.60675 38.532 12.8796 39.5647C12.2974 43.7945 10.6824 47.8191 8.15913 51.3091C7.66838 51.9902 7.68675 52.9131 8.21037 53.5722C8.72412 54.2208 9.61688 54.4667 10.4004 54.1362C22.3059 49.1668 30 37.6165 30 24.7148C30 16.444 23.2728 9.71484 15 9.71484ZM49 9.71484C40.7272 9.71484 34 16.444 34 24.7148C34 32.2661 39.6068 38.532 46.8796 39.5647C46.2974 43.7945 44.6824 47.8191 42.1591 51.3091C41.6684 51.9902 41.6868 52.9131 42.2104 53.5722C42.7241 54.2208 43.6169 54.4667 44.4004 54.1362C56.3059 49.1668 64 37.6165 64 24.7148C64 16.444 57.2728 9.71484 49 9.71484Z" fill="white"/>
</svg>
