<svg width="18" height="14" viewBox="0 0 18 14" fill="none" xmlns="http://www.w3.org/2000/svg">
<path d="M15.6665 11.9987H13.9998V4.70703L8.99984 7.83203L3.99984 4.70703V11.9987H2.33317V1.9987H3.33317L8.99984 5.54036L14.6665 1.9987H15.6665M15.6665 0.332031H2.33317C1.40817 0.332031 0.666504 1.0737 0.666504 1.9987V11.9987C0.666504 12.4407 0.842099 12.8646 1.15466 13.1772C1.46722 13.4898 1.89114 13.6654 2.33317 13.6654H15.6665C16.1085 13.6654 16.5325 13.4898 16.845 13.1772C17.1576 12.8646 17.3332 12.4407 17.3332 11.9987V1.9987C17.3332 1.55667 17.1576 1.13275 16.845 0.820186C16.5325 0.507626 16.1085 0.332031 15.6665 0.332031Z" fill="white"/>
</svg>
